HIERARCHY
ROOT hip
{
	OFFSET 0.000000 0.000000 0.000000 
	CHANNELS 6 Xposition Yposition Zposition Xrotation Zrotation Yrotation
	JOINT abdomen
	{
		OFFSET 0.000000 3.402643 0.000000 
		CHANNELS 3 Xrotation Zrotation Yrotation
		JOINT chest
		{
			OFFSET 0.000000 8.438565 -0.680529 
			CHANNELS 3 Xrotation Zrotation Yrotation
			JOINT neck
			{
				OFFSET 0.000000 10.207942 -0.272212 
				CHANNELS 3 Xrotation Zrotation Yrotation
				JOINT head
				{
					OFFSET 0.000000 3.130431 0.000000 
					CHANNELS 3 Xrotation Zrotation Yrotation
					End Site
					{
						OFFSET 0.000000 3.130435 0.000000 
					}
				}
			}
			JOINT lCollar
			{
				OFFSET 3.470700 6.669187 -0.816635 
				CHANNELS 3 Yrotation Zrotation Xrotation
				JOINT lShldr
				{
					OFFSET 3.198488 0.000000 0.000000 
					CHANNELS 3 Zrotation Yrotation Xrotation
					JOINT lForeArm
					{
						OFFSET 10.139888 0.000000 0.000000 
						CHANNELS 3 Yrotation Zrotation Xrotation
						JOINT lHand
						{
							OFFSET 8.370511 0.000000 0.000000 
							CHANNELS 3 Zrotation Yrotation Xrotation
							End Site
							{
								OFFSET 4.083176 0.000000 0.000000 
							}
						}
					}
				}
			}
			JOINT rCollar
			{
				OFFSET -3.470700 6.669187 -0.816635 
				CHANNELS 3 Yrotation Zrotation Xrotation
				JOINT rShldr
				{
					OFFSET -3.198488 0.000000 0.000000 
					CHANNELS 3 Zrotation Yrotation Xrotation
					JOINT rForeArm
					{
						OFFSET -10.139888 0.000000 0.000000 
						CHANNELS 3 Yrotation Zrotation Xrotation
						JOINT rHand
						{
							OFFSET -8.370511 0.000000 0.000000 
							CHANNELS 3 Zrotation Yrotation Xrotation
							End Site
							{
								OFFSET -4.083176 0.000000 0.000000 
							}
						}
					}
				}
			}
		}
	}
	JOINT lThigh
	{
		OFFSET 5.308129 -1.633274 1.361059 
		CHANNELS 3 Xrotation Zrotation Yrotation
		JOINT lShin
		{
			OFFSET -2.041588 -20.007561 0.000000 
			CHANNELS 3 Xrotation Zrotation Yrotation
			JOINT lFoot
			{
				OFFSET 0.000000 -19.190928 -1.224953 
				CHANNELS 3 Xrotation Yrotation Zrotation
				End Site
				{
					OFFSET 0.000000 -2.449906 4.627600 
				}
			}
		}
	}
	JOINT rThigh
	{
		OFFSET -5.308129 -1.633274 1.361059 
		CHANNELS 3 Xrotation Zrotation Yrotation
		JOINT rShin
		{
			OFFSET 2.041588 -20.007561 0.000000 
			CHANNELS 3 Xrotation Zrotation Yrotation
			JOINT rFoot
			{
				OFFSET 0.000000 -19.190928 -1.224953 
				CHANNELS 3 Xrotation Yrotation Zrotation
				End Site
				{
					OFFSET 0.000000 -2.449906 4.627600 
				}
			}
		}
	}
}
MOTION
Frames: 6
Frame Time: 0.050000
3.176997 42.682686 -1.524539 1.614260 1.650030 -1.630150 -3.339600 -2.861610 -2.539510 2.626950 -1.494140 -1.972910 -0.028617 0.811878 -0.155635 -2.958560 0.903542 -0.252972 -4.141850 -6.798530 -1.187090 -70.643600 11.718200 17.129499 -6.745900 -8.036220 2.335860 11.155500 -5.132170 -15.082000 -0.946592 5.303320 10.067400 70.581200 12.489000 -1.444510 18.639400 11.078900 19.898001 -2.385210 1.580950 0.055042 -7.108222 0.195415 -13.150477 10.861636 -3.884024 -0.739390 -6.676040 20.374897 0.583659 -11.221710 -3.953792 9.850711 9.289467 -0.694484 -0.091745 3.016498 -11.217858 5.140265 
3.096979 42.611816 -1.015305 1.610097 1.647948 -1.628901 -4.020076 -2.883543 -2.560284 2.306816 -1.503360 -1.990736 -0.028617 0.811878 -0.155635 -2.944319 0.903542 -0.252972 -4.102650 -6.824275 -1.183175 -69.759933 15.121684 18.285559 -9.142821 -10.012431 1.307216 12.361374 -2.984305 -9.656148 -0.871994 5.025494 10.062647 70.454910 17.760275 2.005088 26.429569 9.127301 16.631321 -1.528849 1.549343 -2.674598 -6.791912 0.228172 -13.213875 11.699282 -3.972859 -0.826933 -7.870125 20.443836 0.724905 -14.181219 -3.136711 8.145152 14.209525 -1.632321 -0.023800 6.889623 -8.603474 5.812561 
3.005199 42.533741 -0.427737 1.600610 1.643205 -1.626055 -4.795650 -2.957601 -2.572466 1.518462 -1.540846 -2.014006 -0.028617 0.811878 -0.155635 -2.911869 0.903542 -0.252972 -4.013332 -6.882936 -1.174253 -68.332504 19.559471 19.914740 -12.388628 -12.591111 -0.355518 14.235258 -0.016858 -2.642500 -0.866961 4.569186 10.090803 70.758835 24.365719 6.520701 36.592861 6.548968 12.808759 -0.483140 1.690156 -5.895454 -6.033511 0.315172 -13.349849 12.662237 -4.077260 -0.935714 -9.658892 20.560436 0.954899 -18.194952 -2.171273 6.017800 21.024757 -2.991314 -0.037182 11.334063 -5.044683 6.126182 
2.910795 42.456100 0.179524 1.586944 1.636372 -1.621955 -5.589317 -3.074357 -2.575332 0.358057 -1.601736 -2.040284 -0.028617 0.811878 -0.155635 -2.865119 0.903542 -0.252972 -3.884651 -6.967450 -1.161401 -66.520798 24.567337 21.842119 -16.139336 -15.502440 -2.466531 16.569990 3.453593 5.227525 -0.928611 3.985602 10.147655 71.443878 31.624249 11.629311 48.065910 3.614856 8.814044 0.645147 1.981935 -9.283098 -5.857565 0.333633 -13.460854 13.811019 -4.199309 -1.062779 -11.046326 20.679197 1.132239 -21.792944 -1.566038 3.749706 26.690222 -4.109467 -0.163982 15.120782 -1.417778 5.608221 
2.813408 42.376610 0.806634 1.571954 1.628877 -1.617458 -6.407133 -3.204054 -2.576086 -0.918685 -1.669641 -2.067926 -0.028617 0.811878 -0.155635 -2.813843 0.903542 -0.252972 -3.743514 -7.060144 -1.147304 -64.573555 29.834473 23.887760 -20.102499 -18.564785 -4.735598 19.071333 7.129023 13.495728 -1.007444 3.357541 10.212662 72.235458 39.217957 17.005087 60.133816 0.523735 4.678774 1.821094 2.316429 -12.794815 -5.362057 0.392236 -13.595783 14.906581 -4.320309 -1.168427 -12.684147 20.769552 1.344429 -24.950666 -1.308265 1.438822 31.161427 -4.976818 -0.330744 15.421541 1.454124 4.636853 
2.712680 42.292999 1.453746 1.558499 1.622150 -1.613422 -7.255152 -3.316931 -2.581930 -2.056051 -1.728172 -2.095289 -0.028617 0.811878 -0.155635 -2.767817 0.903542 -0.252972 -3.616827 -7.143349 -1.134650 -62.739513 35.050060 25.871716 -23.985666 -21.596508 -6.872490 21.445049 10.711408 21.703913 -1.053955 2.767797 10.265280 72.859009 46.828934 22.322199 72.081657 -2.525624 0.434548 3.009784 2.585386 -16.387884 -4.762996 0.461767 -13.649445 15.873602 -4.418556 -1.283443 -14.328055 20.790791 1.557184 -27.543657 -1.375209 -0.745414 34.216030 -5.538395 -0.453199 10.432584 3.135846 3.863633 
